<svg width="304" height="330" viewBox="0 0 304 330" fill="none" xmlns="http://www.w3.org/2000/svg">
<rect x="50.983" y="133.193" width="209.03" height="149.125" fill="white"/>
<path fill-rule="evenodd" clip-rule="evenodd" d="M80.8705 82.5V70.7143C80.8705 51.9597 88.3513 33.9732 101.667 20.7117C114.983 7.45023 133.043 0 151.875 0C170.707 0 188.767 7.45023 202.083 20.7117C215.399 33.9732 222.879 51.9597 222.879 70.7143V82.5H254.232C261.544 82.4989 268.597 85.1945 274.031 90.0666C279.465 94.9387 282.895 101.642 283.659 108.884L303.588 297.456C304.021 301.563 303.583 305.714 302.302 309.642C301.02 313.569 298.924 317.184 296.15 320.253C293.375 323.321 289.983 325.775 286.195 327.454C282.407 329.133 278.307 330.001 274.16 330H29.5895C25.4431 330.001 21.3428 329.133 17.5547 327.454C13.7666 325.775 10.3752 323.321 7.6005 320.253C4.82579 317.184 2.72975 313.569 1.4483 309.642C0.166863 305.714 -0.27135 301.563 0.162089 297.456L20.0907 108.884C21.6843 93.8771 34.3705 82.5 49.5181 82.5H80.8705ZM118.403 37.3793C127.28 28.5383 139.321 23.5714 151.875 23.5714C164.429 23.5714 176.47 28.5383 185.347 37.3793C194.224 46.2203 199.211 58.2112 199.211 70.7143V82.5H104.539V70.7143C104.539 58.2112 109.526 46.2203 118.403 37.3793ZM55.7985 139.334V269.078H87.042V192.997C87.042 187.273 88.0755 182.344 90.1425 178.21C92.2095 174.076 95.151 170.896 98.967 168.67C102.783 166.285 107.155 165.092 112.084 165.092C117.172 165.092 121.545 166.285 125.202 168.67C129.018 170.896 131.96 174.076 134.027 178.21C136.093 182.344 137.127 187.273 137.127 192.997V269.078H168.371V192.997C168.371 187.273 169.404 182.344 171.471 178.21C173.538 174.076 176.479 170.896 180.296 168.67C184.111 166.285 188.484 165.092 193.413 165.092C198.66 165.092 203.112 166.285 206.769 168.67C210.426 170.896 213.288 174.076 215.355 178.21C217.422 182.344 218.456 187.273 218.456 192.997V269.078H249.699V185.603C249.699 175.904 247.632 167.398 243.498 160.084C239.364 152.611 233.64 146.807 226.326 142.673C219.171 138.539 210.982 136.472 201.761 136.472C191.426 136.472 182.283 139.096 174.333 144.343C169.216 147.617 164.922 151.979 161.452 157.428C158.615 152.53 154.641 148.327 149.529 144.82C141.42 139.255 132.039 136.472 121.386 136.472C111.687 136.472 103.26 138.778 96.105 143.389C91.4296 146.402 87.7726 150.433 85.134 155.483V139.334H55.7985Z" fill="#4263EB"/>
</svg>
